<?xml version="1.0" encoding="iso-8859-1"?>
<!-- Generator: Adobe Illustrator 18.0.0, SVG Export Plug-In . SVG Version: 6.00 Build 0)  -->
<!DOCTYPE svg PUBLIC "-//W3C//DTD SVG 1.1//EN" "http://www.w3.org/Graphics/SVG/1.1/DTD/svg11.dtd">
<svg version="1.1" id="Capa_1" xmlns="http://www.w3.org/2000/svg" xmlns:xlink="http://www.w3.org/1999/xlink" x="0px" y="0px"
	 viewBox="0 0 222.787 222.787" style="enable-background:new 0 0 222.787 222.787;" xml:space="preserve">
<path d="M133.816,64.019V7.5c0-4.142-3.358-7.5-7.5-7.5H96.471c-4.142,0-7.5,3.358-7.5,7.5v56.518
	c-12.178,7.656-19.82,21.229-19.82,35.797v21.732v50.274v43.467c0,4.143,3.358,7.5,7.5,7.5h69.486c4.142,0,7.5-3.357,7.5-7.5V171.82
	v-50.274V99.814C153.637,85.25,145.994,71.677,133.816,64.019z M118.816,15v21.519h-14.846V15H118.816z M99.694,75.209
	c2.612-1.243,4.276-3.878,4.276-6.771V51.519h14.846v16.919c0,2.893,1.664,5.527,4.275,6.771
	c9.443,4.497,15.545,14.156,15.545,24.605v14.232H84.15V99.814C84.15,89.362,90.252,79.704,99.694,75.209z M138.637,164.32H84.15
	v-35.273h54.486V164.32z M84.15,207.787V179.32h54.486v28.467H84.15z"/>
<g>
</g>
<g>
</g>
<g>
</g>
<g>
</g>
<g>
</g>
<g>
</g>
<g>
</g>
<g>
</g>
<g>
</g>
<g>
</g>
<g>
</g>
<g>
</g>
<g>
</g>
<g>
</g>
<g>
</g>
</svg>
